<svg xmlns="http://www.w3.org/2000/svg" xmlns:xlink="http://www.w3.org/1999/xlink" width="129" height="44" fill="none" xmlns:v="https://vecta.io/nano"><g fill="#363d61"><use xlink:href="#C"/><path d="M61.92 26.424c0 1.896 1.512 3.624 4.128 3.624 1.584 0 2.736-.672 3.36-1.68 0 .816.096 1.248.12 1.344h3.288c-.024-.12-.144-.912-.144-1.848v-5.832c0-2.448-1.416-4.608-5.28-4.608-3.504 0-5.088 2.256-5.232 3.96l3.168.648c.072-.888.768-1.752 2.04-1.752 1.152 0 1.752.6 1.752 1.296 0 .408-.216.72-.864.816l-2.808.432c-1.968.288-3.528 1.488-3.528 3.6zm5.016.984c-1.008 0-1.416-.6-1.416-1.224 0-.84.576-1.2 1.344-1.32l2.256-.36v.528c0 1.848-1.104 2.376-2.184 2.376zM78.2 32.272v-3.496c.552.672 1.704 1.2 3.24 1.2 3.336 0 5.688-2.616 5.688-6.264 0-3.576-2.088-6.216-5.544-6.216-1.704 0-3 .744-3.504 1.512v-1.224h-3.528v14.488H78.2zm5.352-8.536c0 1.992-1.272 2.976-2.712 2.976-1.416 0-2.688-1.008-2.688-2.976 0-1.992 1.272-2.952 2.688-2.952 1.44 0 2.712.96 2.712 2.952zm8.368 5.976V17.784h-3.648v11.928h3.648zm17.85-6.84c0-1.2.768-2.088 1.968-2.088 1.32 0 1.944.888 1.944 2.064v6.864h3.648v-7.488c0-2.616-1.344-4.752-4.344-4.752-1.224 0-2.688.552-3.336 1.68v-1.368h-3.528v11.928h3.648v-6.84z"/><use xlink:href="#C" x="66.51"/><path d="M97.125 21.763c.3-.84 1.333-1.73 2.817-1.332 1.67.447 1.987 1.675 1.797 2.568l-4.613-1.236zm4.067 4.295c-.567.817-1.447 1.227-2.722.886-1.368-.366-2.302-1.61-2.023-2.927l8.02 2.15c.042-.063.23-.584.362-1.07.994-3.71-.618-6.5-4.19-7.458-3-.8-6.382.824-7.376 4.533-1.037 3.872 1.182 6.9 4.358 7.752 2.92.783 5.2-.396 6.3-2.24l-2.72-1.623z"/></g><path d="M87.96 14.136c0 1.176.96 2.136 2.112 2.136 1.2 0 2.16-.96 2.16-2.136S91.272 12 90.072 12c-1.152 0-2.112.96-2.112 2.136z" fill="#1f93ff"/><mask id="A" mask-type="alpha" maskUnits="userSpaceOnUse" x="0" y="0" width="44" height="44"><circle cx="22" cy="22" r="22" fill="#ff3e3e"/></mask><g mask="url(#A)"><circle cx="22" cy="22" r="22" fill="#ff3e3e"/><path d="M14.4 2.188S9.68 1.34 6.28 4.36 3.166 11.533 4.1 14.93c1.038 3.398 2.737 6.89 2.737 6.89s2.832 2.832 5.57 1.322c2.737-1.605 6.324-4.153 6.985-8.495.19-1.227.472-3.964.944-4.153.283-.094 2.643 1.5 8.212 3.115 3.21.944 5.947.85 7.646.66 1.32-.094 2.17-.472 2.548-1.038C39.8 11.91 37.43 4.36 34.315.395S25.63-4.136 22.61-3.57c-2.926.472-6.513 1.605-8.212 5.758z" fill="#363d61"/><path d="M11.473 27.107l-4.72 14.16s2.17 1.5 6.324 2.643c5.758 1.605 10.95.566 10.95.566l1.605-9.44-14.16-7.93z" fill="#e5a385"/><path d="M9.963 28.9c2.502 0 4.53-2.155 4.53-4.814s-2.028-4.814-4.53-4.814-4.53 2.155-4.53 4.814S7.46 28.9 9.963 28.9z" fill="#fff"/><path d="M35.448 14.27s-3.964-.19-8.4-1.7c-3.68-1.227-7.74-4.814-7.74-4.814s.377 4.814-1.038 8.6c-1.227 3.115-3.587 4.72-3.587 4.72l-.19.094c-.85-1.5-2.454-2.454-4.153-2.454-2.737 0-5.003 2.36-5.003 5.38 0 2.926 2.265 5.38 5.003 5.38 1.038 0 1.982-.283 2.737-.85.094.283.19.378.19.66.472 1.793 2.077 3.304 4.908 4.814 3.304 1.7 8.212 3.492 10.95 2.643s5.003-3.68 5.852-8.59.472-13.875.472-13.875z" fill="#ffcab0"/><path d="M10.34 26.07c1.095 0 1.982-.887 1.982-1.982s-.887-1.982-1.982-1.982-1.982.887-1.982 1.982.887 1.982 1.982 1.982z" fill="#e5a385"/><g fill="#333454"><path d="M24.593 17.48c.2 0 .378 0 .566-.2.2-.094.2-.283.283-.472 0-.378-.283-.755-.66-.755-3.115-.283-4.53 1.888-4.625 1.982-.094.2-.2.378-.094.566 0 .2.2.378.283.472s.283.094.378.094c.283 0 .472-.2.66-.283.094-.283 1.038-1.605 3.2-1.416zm9.345-1.133c-1.322-.85-2.926-.378-2.926-.378-.378.2-.566.566-.472.944.2.378.566.566.944.472.66-.2 1.227-.094 1.605.2.094.094.283.094.378.094a1.02 1.02 0 0 0 .661-.283c.2-.378.094-.755-.2-1.038zm-9.638 6.23a1.322 1.322 0 1 0 0-2.643 1.322 1.322 0 1 0 0 2.643zm8.4-.755a1.322 1.322 0 1 0 0-2.643 1.322 1.322 0 1 0 0 2.643zm-3.2-.378a.6.6 0 0 0-.566 0c-.2.094-.377.2-.472.378a.6.6 0 0 0 0 .566c.378 1.227.944 3.304.85 4.06-.094.66-.944.755-.944.755-.378 0-.66.378-.66.85.094.377.378.566.66.66h.2c.755-.094 1.982-.66 2.17-1.982.2-1.416-.755-4.342-.944-4.72 0-.378-.2-.472-.283-.566zm-2.925 8.684c-2.926-.094-3.587-2.55-3.68-2.643-.094-.2-.2-.378-.283-.472-.2-.094-.378-.094-.566-.094-.378.094-.66.472-.566.85.283 1.227 1.793 3.68 5.003 3.776.378 0 .755-.283.755-.755 0-.2 0-.377-.2-.472a.72.72 0 0 0-.472-.189z"/></g><path d="M25.16 38.057c-.094 0-3.21-.566-8.306-3.02-1.416-.66-3.21-2.17-3.776-3.115-.283-.472-.472-1.038-.66-1.416-.094 0-.094.094-.19.094-.377.19-.944.283-1.322.283-.283 0-.66-.094-.755-.094l.472-1.32h.19c.283 0 .66-.094.944-.19s.566-.283.755-.378l.85-.566.19 1.038s.19 1.038.755 1.888c.378.66 1.982 1.982 3.21 2.55 4.908 2.36 7.93 2.926 7.93 2.926l-.283 1.322z" fill="#313354"/></g><defs ><path id="C" d="M51.7 26.328c.096 1.32 1.296 3.744 5.04 3.744 3.192 0 4.752-1.992 4.752-4.032 0-1.752-1.2-3.24-3.672-3.744l-1.584-.312c-.528-.096-.936-.384-.936-.888 0-.624.6-1.032 1.296-1.032 1.104 0 1.608.672 1.704 1.464l3.024-.552c-.12-1.392-1.32-3.552-4.776-3.552-2.664 0-4.584 1.776-4.584 3.96 0 1.68 1.008 3.12 3.552 3.672l1.368.312c.888.192 1.176.552 1.176.984 0 .528-.456 1.032-1.392 1.032-1.248 0-1.824-.792-1.872-1.608l-3.096.552z"/></defs></svg>