<svg xmlns="http://www.w3.org/2000/svg" xmlns:xlink="http://www.w3.org/1999/xlink" viewBox="0 0 652.23 196.7"><defs><style>.cls-1{fill:none;}.cls-2{clip-path:url(#clip-path);}.cls-3,.cls-5,.cls-6,.cls-8{fill-rule:evenodd;}.cls-3{fill:url(#linear-gradient);}.cls-4{fill:#666;}.cls-5{fill:url(#linear-gradient-2);}.cls-6{fill:url(#linear-gradient-3);}.cls-7{fill:#f99b52;}.cls-8{fill:url(#linear-gradient-4);}.cls-9{fill:url(#linear-gradient-5);}.cls-10{fill:url(#linear-gradient-6);}</style><clipPath id="clip-path"><rect class="cls-1" width="170.3" height="196.7"/></clipPath><linearGradient id="linear-gradient" x1="118.92" y1="942.04" x2="-45.11" y2="592.2" gradientTransform="matrix(1, 0, 0, -1, 0, 902.22)" gradientUnits="userSpaceOnUse"><stop offset="0.15" stop-color="#2b0aff"/><stop offset="0.59" stop-color="#e40df2"/><stop offset="0.78" stop-color="#f99b52"/></linearGradient><linearGradient id="linear-gradient-2" x1="128.69" y1="921.71" x2="-29.54" y2="731.55" gradientTransform="matrix(1, 0, 0, -1, 0, 902.22)" gradientUnits="userSpaceOnUse"><stop offset="0" stop-color="#f99b52"/><stop offset="0.52" stop-color="#ff5b8a"/><stop offset="1" stop-color="#2b0aff"/></linearGradient><linearGradient id="linear-gradient-3" x1="149.61" y1="750.49" x2="127.83" y2="814.36" xlink:href="#linear-gradient-2"/><linearGradient id="linear-gradient-4" x1="24.3" y1="758.22" x2="146" y2="758.22" xlink:href="#linear-gradient-2"/><linearGradient id="linear-gradient-5" x1="161.19" y1="915.79" x2="107.48" y2="696.6" gradientTransform="matrix(1, 0, 0, -1, 0, 902.22)" gradientUnits="userSpaceOnUse"><stop offset="0.15" stop-color="#2b0aff"/><stop offset="0.59" stop-color="#e40df2"/><stop offset="0.78" stop-color="#f6846d"/></linearGradient><linearGradient id="linear-gradient-6" x1="83.25" y1="812.67" x2="261.8" y2="938.96" gradientTransform="matrix(1, 0, 0, -1, 0, 902.22)" gradientUnits="userSpaceOnUse"><stop offset="0" stop-color="#2b0aff"/><stop offset="0.45" stop-color="#e93abf"/><stop offset="1" stop-color="#ff6c98"/></linearGradient></defs><g id="Layer_2" data-name="Layer 2"><g id="Grad_Mark" data-name="Grad Mark"><g class="cls-2"><path class="cls-3" d="M24.3,63.2,109.5,14,85.2,0,0,49.2v98.3l85.2,49.2V168.6L24.3,133.4Z"/><path class="cls-4" d="M85.2,98.3v28.1L146,91.3v42.1L85.2,168.5v28.1l85.2-49.2V49.2Z"/><path class="cls-5" d="M24.3,63.2v70.2l24.4-14V77.3l60.8-35.2V14Z"/><path class="cls-6" d="M121.6,105.4v14l24.4,14V91.3Z"/><path class="cls-7" d="M60.8,84.3v28.1l24.3,14V98.3Z"/><path class="cls-8" d="M24.3,133.4l60.9,35.2L146,133.4l-24.4-14L85.2,140.5,48.7,119.4Z"/><path class="cls-9" d="M85.2,98.3v28.1L146,91.3v42.1L85.2,168.6v28.1l85.1-49.2V49.2Z"/><path class="cls-10" d="M60.8,84.3l24.3,14,85.2-49.2L146,35.1Z"/></g><path d="M256.27,147.54a48.74,48.74,0,0,1-24.7-6.4A46.58,46.58,0,0,1,214,123.47a50.19,50.19,0,0,1-6.4-25.21A51,51,0,0,1,213.9,73,45.29,45.29,0,0,1,231.06,55.5a48.3,48.3,0,0,1,24.7-6.4,47.36,47.36,0,0,1,18.31,3.46,41.08,41.08,0,0,1,14.2,9.09,34.56,34.56,0,0,1,8.32,12.93L279.06,83a23.53,23.53,0,0,0-8.71-11.52A24.12,24.12,0,0,0,255.76,67a28.06,28.06,0,0,0-14.85,4,26.12,26.12,0,0,0-10,11,36.35,36.35,0,0,0-3.46,16.26,36.14,36.14,0,0,0,3.59,16.38,27.76,27.76,0,0,0,10.24,11,28.71,28.71,0,0,0,15,4,29.43,29.43,0,0,0,12.29-2.56,22.48,22.48,0,0,0,9.22-7.3,19,19,0,0,0,3.45-11.26v-.26H255.76L246.5,93.52h54.57v8.19q0,14.85-6.4,25.22A40.81,40.81,0,0,1,278,142.42,48,48,0,0,1,256.27,147.54Z"/><path d="M326.65,147.54q-11.4,0-17.92-5.38c-4.35-3.58-6-8.53-6-14.85,0-6,1.55-10.84,5.64-14.59s10.41-6.44,18.69-7.81l19.33-3.07V99.92a8.38,8.38,0,0,0-3.2-6.66,12.7,12.7,0,0,0-8.45-2.68,15.31,15.31,0,0,0-9.09,2.81,15.51,15.51,0,0,0-5.63,7.43l-15.36-7.3A26.16,26.16,0,0,1,316,79.7a37,37,0,0,1,19.59-5.12,35.84,35.84,0,0,1,15.49,3.2,24.55,24.55,0,0,1,10.62,9,23.2,23.2,0,0,1,3.84,13.18V146H347.64v-6.53a27.32,27.32,0,0,1-9.22,6.15A33.39,33.39,0,0,1,326.65,147.54ZM322,126.67a6,6,0,0,0,2.3,5,10.05,10.05,0,0,0,6.15,1.8,15.38,15.38,0,0,0,11.39-4.36,14.93,14.93,0,0,0,4.48-11v-2.18l-15.87,2.82a13,13,0,0,0-6.4,2.68A6.83,6.83,0,0,0,322,126.67Z"/><path d="M369.24,76.11h17.92v8.58a16.08,16.08,0,0,1,7.68-7.55,26.23,26.23,0,0,1,11.9-2.56,26.73,26.73,0,0,1,12.55,2.94A20.23,20.23,0,0,1,428,85.2q7.42-10.62,21.63-10.62a26.23,26.23,0,0,1,13.32,3.32,23.73,23.73,0,0,1,9.21,9.35,28.07,28.07,0,0,1,3.33,13.82V146h-19.2V105.17q0-6.15-3.33-9.73t-8.83-3.58a11.64,11.64,0,0,0-9,3.58Q432,99,432,105.17V146h-19.2V105.17q0-6.15-3.33-9.73t-8.83-3.58a11.64,11.64,0,0,0-9,3.58q-3.19,3.59-3.2,9.73V146h-19.2Z"/><path d="M479.22,76.11h17.92v8.58a16,16,0,0,1,7.68-7.55,26.23,26.23,0,0,1,11.9-2.56,26.66,26.66,0,0,1,12.54,2.94A20.26,20.26,0,0,1,538,85.2q7.42-10.62,21.63-10.62a26.22,26.22,0,0,1,13.31,3.32,23.69,23.69,0,0,1,9.22,9.35,28.07,28.07,0,0,1,3.33,13.82V146h-19.2V105.17q0-6.15-3.33-9.73a11.24,11.24,0,0,0-8.83-3.58,11.61,11.61,0,0,0-9,3.58q-3.21,3.59-3.2,9.73V146h-19.2V105.17q0-6.15-3.33-9.73a11.24,11.24,0,0,0-8.83-3.58,11.61,11.61,0,0,0-9,3.58q-3.21,3.59-3.2,9.73V146h-19.2Z"/><path d="M613.32,147.54q-11.39,0-17.92-5.38t-6.52-14.85A18.86,18.86,0,0,1,595,112.72q6.27-5.76,18.69-7.81L633,101.84V99.92a8.37,8.37,0,0,0-3.19-6.66,12.72,12.72,0,0,0-8.45-2.68,15.27,15.27,0,0,0-9.09,2.81,15.45,15.45,0,0,0-5.63,7.43l-15.36-7.3A26.07,26.07,0,0,1,602.7,79.7a37,37,0,0,1,19.58-5.12,35.77,35.77,0,0,1,15.49,3.2,24.52,24.52,0,0,1,10.63,9,23.2,23.2,0,0,1,3.83,13.18V146H634.32v-6.53a27.51,27.51,0,0,1-9.22,6.15A33.45,33.45,0,0,1,613.32,147.54Zm-4.6-20.87a6,6,0,0,0,2.3,5,10,10,0,0,0,6.14,1.8,15.36,15.36,0,0,0,11.39-4.36,14.93,14.93,0,0,0,4.48-11v-2.18l-15.87,2.82a13.09,13.09,0,0,0-6.4,2.68A6.86,6.86,0,0,0,608.72,126.67Z"/></g></g></svg>