<svg width="287" height="53" viewBox="0 0 287 53" fill="none" xmlns="http://www.w3.org/2000/svg" class="MuiSvgIcon-root" focusable="false" aria-hidden="true" style="height: 44px; width: auto;"><path d="M3.96 3C1.7 3 0 4.655 0 6.85C0 9.045 1.7 10.7 3.96 10.7C6.22 10.7 7.92 9.01 7.92 6.85C7.92 4.69 6.18 3 3.96 3Z" fill="white"></path><path d="M7.18 14.96H0.795V40.74H7.18V14.96Z" fill="white"></path><path d="M42.185 14.33C38.16 14.33 35.38 15.38 32.71 17.955C30.735 15.64 27.765 14.325 24.48 14.325C21.71 14.325 19.67 14.955 17.87 16.395V14.96H11.435V40.74H17.87V23.455C19.37 21.375 21.32 20.235 23.37 20.235C27.125 20.235 29.19 22.545 29.19 26.74V40.74H35.575V26.425C35.575 25.415 35.48 24.435 35.29 23.515C36.84 21.34 38.785 20.235 41.075 20.235C44.83 20.235 46.895 22.545 46.895 26.74V40.74H53.28V26.425C53.28 19.305 48.72 14.33 42.185 14.33Z" fill="white"></path><path d="M88.285 14.33C84.26 14.33 81.48 15.38 78.81 17.955C76.835 15.64 73.865 14.325 70.58 14.325C67.81 14.325 65.77 14.955 63.97 16.395V14.96H57.535V40.74H63.97V23.455C65.47 21.375 67.42 20.235 69.47 20.235C73.225 20.235 75.29 22.545 75.29 26.74V40.74H81.675V26.425C81.675 25.415 81.58 24.435 81.39 23.515C82.94 21.34 84.885 20.235 87.175 20.235C90.93 20.235 92.995 22.545 92.995 26.74V40.74H99.38V26.425C99.38 19.305 94.82 14.33 88.285 14.33Z" fill="white"></path><path d="M121.225 33.3L121.085 33.52C120.2 34.92 118.555 35.625 116.195 35.625C111.185 35.625 109.65 32.29 109.195 29.96H128.555L128.605 29.55C128.715 28.675 128.715 28.065 128.715 27.22C128.715 19.63 123.415 14.33 115.825 14.33C108.235 14.33 102.565 20.02 102.565 27.855C102.565 35.69 108.275 41.38 116.14 41.38C121.8 41.38 126.325 38.525 127.945 33.93L128.165 33.305H121.22L121.225 33.3ZM115.88 19.915C119.445 19.915 121.675 21.79 122.215 25.21H109.325C110.135 21.88 112.55 19.915 115.88 19.915Z" fill="white"></path><path d="M164.18 25.38L159.52 24.64C157.94 24.38 156.06 23.72 156.06 22.04C156.06 20.515 157.72 19.605 160.505 19.605C162.795 19.605 165.58 20.18 165.85 22.935L165.89 23.36H171.9L171.86 22.85C171.6 19.65 169.78 14.28 160.505 14.28C153.925 14.28 149.675 17.515 149.675 22.52C149.675 26.52 152.425 29.18 157.415 30.01L162.91 30.96C164.78 31.285 165.85 32.18 165.85 33.405C165.85 35.28 163.28 35.95 160.875 35.95C157.195 35.95 155.24 34.695 154.73 32L154.66 31.62L148.68 31.56L148.73 32.08C149.31 38.08 153.57 41.385 160.72 41.385C167.87 41.385 172.025 38.165 172.025 32.99C172.025 28.845 169.46 26.36 164.19 25.395L164.18 25.38Z" fill="white"></path><path d="M138.345 17.68V14.96H131.91V40.74H138.345V24.785C140.46 22.085 143.32 20.7 147.09 20.55L147.54 20.53V14.43H147.07C143.67 14.43 140.675 15.55 138.345 17.68Z" fill="white"></path><path d="M178.25 3C175.995 3 174.29 4.655 174.29 6.85C174.29 9.045 175.99 10.7 178.25 10.7C180.51 10.7 182.21 9.01 182.21 6.85C182.21 4.69 180.47 3 178.25 3Z" fill="white"></path><path d="M204.89 34.215L204.34 34.445C202.885 35.05 201.52 35.36 200.295 35.36C197.3 35.36 195.905 33.88 195.905 30.705V20.5H205.1V14.965H195.905V6.19H189.47V14.96H183.605V20.495H189.47V30.7C189.47 37.48 193.185 41.37 199.665 41.37C201.735 41.37 203.53 41.05 205.48 40.335L205.845 40.2L204.9 34.205L204.89 34.215Z" fill="white"></path><path d="M175.085 14.96V40.74H181.47V14.96H175.085Z" fill="white"></path><path d="M275.38 40.74L271.065 31.085H253.03L248.715 40.74H244.35L260.125 6.195H263.98L279.755 40.74H275.38ZM254.625 27.48H269.425L262.025 10.92L254.625 27.48Z" fill="white"></path><path d="M287 6.19H282.94V40.735H287V6.19Z" fill="white"></path><path d="M231.41 14.96L223.16 33.7L214.145 14.96H207.225L220.125 40.65L214.69 53H221.475L238.25 14.96H231.41Z" fill="white"></path></svg>