<svg xmlns="http://www.w3.org/2000/svg" width="40" height="40" viewBox="0 0 40 40" fill="none"><rect width="1em" height="1em" rx="12" fill="white" fill-opacity="0.12"></rect><path d="M7 20C7 14.4772 11.4772 10 17 10C22.5228 10 27 14.4772 27 20C27 25.5228 22.5228 30 17 30H9C7.89543 30 7 29.1046 7 28V20Z" fill="#3C38FF"></path><path d="M13 20C13 14.4772 17.4772 10 23 10C28.5228 10 33 14.4772 33 20C33 25.5228 28.5228 30 23 30C17.4772 30 13 25.5228 13 20Z" fill="#FF2815"></path><path d="M20 10.4578C24.0571 11.7321 27 15.5224 27 20C27 24.4776 24.0571 28.268 20 29.5422C15.9429 28.268 13 24.4776 13 20C13 15.5224 15.9429 11.7321 20 10.4578Z" fill="#FF7DFF"></path></svg>