<svg version="1.1" xmlns="http://www.w3.org/2000/svg" xmlns:xlink="http://www.w3.org/1999/xlink" x="0px" y="0px" viewBox="0 0 35.4 35.4" enable-background="new 0 0 35.4 35.4" xml:space="preserve"><path fill="#00ffc3" class="logo-dark" d="M17.7,0.7c-9.4,0-17,7.6-17,17c0,9.4,7.6,17,17,17s17-7.6,17-17C34.7,8.3,27.1,0.7,17.7,0.7z M31.6,13.1
c0.3,1,0.5,1.9,0.6,2.8l0.1,0.5h-5.5l-0.1-0.3c-0.1-0.2-0.1-0.3-0.2-0.5l0-0.1c0-0.1-0.1-0.3-0.1-0.4l-0.2-0.5l5.2-2.1L31.6,13.1z
 M24.7,4.9l0.5,0.3c1.9,1.1,3.6,2.8,4.9,4.8l0.3,0.5l-5.2,2.2l-0.2-0.3c-0.6-0.8-1.3-1.5-2.1-2.1L22.5,10L24.7,4.9z M11,4.8
c2.1-1.1,4.4-1.7,6.7-1.7c1.5,0,2.9,0.2,4.2,0.6l0.5,0.2L20.3,9l-0.4-0.1c-0.8-0.2-1.5-0.3-2.2-0.3c-1.2,0-2.4,0.3-3.6,0.8l-0.4,0.2
L10.5,5L11,4.8z M6.2,8.6c0.5-0.7,1.1-1.3,1.9-2l0.4-0.4l3.3,4.5l-0.3,0.3c-0.1,0.1-0.2,0.2-0.3,0.3c-0.1,0.1-0.2,0.3-0.3,0.4
L10.6,12L5.9,9L6.2,8.6z M3.1,15.9c0.2-1.5,0.6-3,1.2-4.3l0.2-0.5l4.7,3l-0.1,0.4C9,15,8.8,15.6,8.7,16.2l-0.1,0.4H3.1L3.1,15.9z
 M3.6,21.9c-0.2-0.8-0.4-1.6-0.5-2.5L3,18.9h5.7v0.5c0,0.1,0.1,0.3,0.1,0.5l0.2,0.5l-5.3,2.1L3.6,21.9z M10.5,30.4L10,30.1
c-2-1.2-3.7-2.9-5-5.1l-0.3-0.5l5.2-2.1l0.2,0.3c0.6,0.8,1.3,1.6,2.2,2.2l0.3,0.2L10.5,30.4z M16.5,32.3l-0.6-0.1
c-1-0.1-1.9-0.3-2.7-0.6l-0.5-0.2l2.3-5.2l0.5,0.2c0.2,0.1,0.3,0.1,0.5,0.1h0.5V32.3z M11,17.7c0-3.8,2.9-6.7,6.7-6.7
c3.7,0,6.7,3,6.7,6.7c0,3.7-3,6.7-6.7,6.7S11,21.4,11,17.7z M24.2,30.7c-1.5,0.8-3.2,1.3-5,1.6l-0.6,0.1v-5.8h0.6
c0.7-0.1,1.4-0.3,1.9-0.5l0.4-0.2l3.2,4.6L24.2,30.7z M29.5,26.3c-0.5,0.8-1.3,1.6-2.3,2.5l-0.4,0.4l-3.2-4.6l0.3-0.3
c0.1-0.1,0.2-0.3,0.4-0.4c0.1-0.2,0.3-0.3,0.4-0.5l0.3-0.3l4.8,2.8L29.5,26.3z M32.2,19.3c-0.1,1.2-0.4,2.5-1,4l-0.2,0.5L26.1,21
l0.2-0.4c0.2-0.5,0.3-0.8,0.4-1.3l0.1-0.4l5.6-0.1L32.2,19.3z"></path></svg>